<svg xmlns="http://www.w3.org/2000/svg" viewBox="0 0 21.23 29.04"><defs><style>.cls-1{fill:#000;}</style></defs><g id="Layer_2" data-name="Layer 2"><g id="Layer_1-2" data-name="Layer 1"><path class="cls-1" d="M10.62,0A10.73,10.73,0,0,0,0,10.81c0,3.33,1.69,7.38,5,12a52.86,52.86,0,0,0,4.93,5.93.94.94,0,0,0,.68.28,1,1,0,0,0,.66-.26A49,49,0,0,0,16.22,23c3.33-4.58,5-8.68,5-12.19A10.72,10.72,0,0,0,10.62,0Zm0,26.72C8.49,24.4,1.9,16.77,1.9,10.81A8.83,8.83,0,0,1,10.62,1.9a8.83,8.83,0,0,1,8.71,8.91C19.33,17.09,12.78,24.47,10.63,26.72Z"/><path class="cls-1" d="M10.62,5.09a5.19,5.19,0,1,0,5.19,5.19A5.19,5.19,0,0,0,10.62,5.09Zm0,8.48a3.29,3.29,0,1,1,3.29-3.29A3.29,3.29,0,0,1,10.62,13.57Z"/></g></g></svg>