<svg xmlns="http://www.w3.org/2000/svg" viewBox="0 0 29.04 20.42"><defs><style>.cls-1{fill:#000;}</style></defs><g id="Layer_2" data-name="Layer 2"><g id="Layer_1-2" data-name="Layer 1"><path class="cls-1" d="M26.49,0H2.55A2.55,2.55,0,0,0,0,2.55V17.87a2.55,2.55,0,0,0,2.55,2.55H26.49A2.55,2.55,0,0,0,29,17.87V2.55A2.55,2.55,0,0,0,26.49,0Zm-.36,1.7-9.8,9.76a2.57,2.57,0,0,1-1.81.74,2.53,2.53,0,0,1-1.81-.75L2.91,1.7ZM1.7,17.52V2.9l7.35,7.31Zm1.21,1.2,7.35-7.31,1.25,1.25a4.27,4.27,0,0,0,6,0l1.25-1.25,7.35,7.31Zm24.43-1.2L20,10.21,27.34,2.9Z"/></g></g></svg>