<svg xmlns="http://www.w3.org/2000/svg" viewBox="0 0 24.8 24.69"><defs><style>.cls-1{fill:#000;}</style></defs><g id="Layer_2" data-name="Layer 2"><g id="Layer_1-2" data-name="Layer 1"><path class="cls-1" d="M24.08,18.53,20.5,15a2.55,2.55,0,0,0-1.82-.74,2.68,2.68,0,0,0-1.9.79l-1.4,1.39a17.18,17.18,0,0,1-4-2.92,17.37,17.37,0,0,1-2.93-4l1.4-1.4a2.64,2.64,0,0,0,.05-3.72L6.29.75A2.52,2.52,0,0,0,4.48,0,2.68,2.68,0,0,0,2.61.76,7.69,7.69,0,0,0,.18,5.18c-.81,3.94,1.05,7.73,6.39,13.07,6,6,11.07,6.44,12.49,6.44a3.24,3.24,0,0,0,.52,0,5.9,5.9,0,0,0,4.51-2.46A2.73,2.73,0,0,0,24.08,18.53Zm-1.19,2.7a4.36,4.36,0,0,1-3.49,1.9,2.3,2.3,0,0,1-.34,0c-1.27,0-5.85-.43-11.4-6C2.73,12.23,1,8.85,1.69,5.49A6.06,6.06,0,0,1,3.57,2l.05,0,0,0a1.15,1.15,0,0,1,.82-.34,1,1,0,0,1,.73.29L8.79,5.42A1.09,1.09,0,0,1,8.74,7L7.16,8.54l0,0A1.25,1.25,0,0,0,7,10a18.66,18.66,0,0,0,3.28,4.52,18.53,18.53,0,0,0,4.5,3.27,1.39,1.39,0,0,0,.67.18,1.21,1.21,0,0,0,.93-.43l1.49-1.48a1.15,1.15,0,0,1,.81-.35,1,1,0,0,1,.73.3L23,19.62A1.2,1.2,0,0,1,22.89,21.23Z"/><path class="cls-1" d="M15,3.77a7.28,7.28,0,0,1,6,6.05.78.78,0,0,0,.77.68h.08a.77.77,0,0,0,.68-.85A8.81,8.81,0,0,0,15.2,2.24.77.77,0,0,0,15,3.77Z"/><path class="cls-1" d="M14.3,7a4.69,4.69,0,0,1,2.36,1.26,4.63,4.63,0,0,1,1.26,2.38.78.78,0,0,0,.76.69h.09a.76.76,0,0,0,.68-.85,6.17,6.17,0,0,0-5-5,.78.78,0,0,0-.85.68A.76.76,0,0,0,14.3,7Z"/></g></g></svg>