<svg xmlns="http://www.w3.org/2000/svg" viewBox="0 0 26.61 26.61"><defs><style>.cls-1{fill:#ccc;}</style></defs><g id="Layer_2" data-name="Layer 2"><g id="Layer_1-2" data-name="Layer 1"><path class="cls-1" d="M25.88,22.35l-6.11-6.1a11.73,11.73,0,0,1-3.53,3.52l6.11,6.11a2.5,2.5,0,1,0,3.53-3.53Z"/><path class="cls-1" d="M20,10A10,10,0,1,0,10,20,10,10,0,0,0,20,10ZM10,17.46A7.49,7.49,0,1,1,17.46,10,7.49,7.49,0,0,1,10,17.46Z"/><path class="cls-1" d="M4.16,10H5.82A4.17,4.17,0,0,1,10,5.82V4.16A5.83,5.83,0,0,0,4.16,10Z"/></g></g></svg>