<svg xmlns="http://www.w3.org/2000/svg" viewBox="0 0 17.61 26.47"><defs><style>.cls-1{fill:#fff;}</style></defs><g id="Layer_2" data-name="Layer 2"><g id="Layer_1-2" data-name="Layer 1"><path class="cls-1" d="M10.6,26.47l-.22,0a1,1,0,0,1-.6-.46l-4.3-7.76L1.56,21.81a.9.9,0,0,1-1,.17A.92.92,0,0,1,0,21.13V.94A.94.94,0,0,1,.54.09a.9.9,0,0,1,1,.12L17.27,13.13a.93.93,0,0,1,.31,1,1,1,0,0,1-.76.68l-5.72.85L15,22.79A.94.94,0,0,1,14.65,24l-3.54,2.3A1,1,0,0,1,10.6,26.47ZM5.72,15.79l.15,0a.91.91,0,0,1,.67.47l4.39,7.93,2-1.29L8.82,15.35a.93.93,0,0,1,0-.86A.92.92,0,0,1,9.5,14l5-.75L1.87,2.91V19l3.22-3A.93.93,0,0,1,5.72,15.79Z"/></g></g></svg>